<svg width="1998" height="605" viewBox="0 0 1998 605" fill="none" xmlns="http://www.w3.org/2000/svg">
<g clip-path="url(#clip0_25_120)">
<g clip-path="url(#clip1_25_120)">
<g clip-path="url(#clip2_25_120)">
<path d="M168.453 470.069L194.869 333.269H102.883L76.4664 470.069H0.0471191L61.3712 154.485H137.79L114.204 276.19H205.719L229.777 154.485H306.196L244.872 470.069H168.453ZM301.007 393.178C301.007 371.478 303.9 350.88 309.687 331.382C315.536 311.884 324.121 294.745 335.443 279.964C346.764 265.183 360.664 253.453 377.143 244.773C393.685 236.157 412.648 231.848 434.033 231.848C460.45 231.848 479.476 237.194 491.112 247.887C502.747 258.579 508.565 272.574 508.565 289.87C508.565 303.078 505.326 315.343 498.848 326.665C492.432 337.986 483.312 347.892 471.488 356.383C459.726 364.874 445.732 371.793 429.505 377.139C413.34 382.485 395.666 386.102 376.483 387.989C376.483 389.247 376.388 390.882 376.2 392.895C376.074 394.97 376.011 396.794 376.011 398.367C376.011 406.229 378.212 411.889 382.615 415.349C387.018 418.808 392.521 420.538 399.125 420.538C403.528 420.538 409.566 419.594 417.24 417.707C424.976 415.82 432.775 413.619 440.637 411.103C449.757 408.273 459.349 404.971 469.412 401.197L485.451 449.313C474.759 454.659 463.752 459.219 452.43 462.993C442.681 466.452 431.895 469.534 420.07 472.239C408.308 474.88 396.767 476.201 385.445 476.201C369.407 476.201 356.041 473.842 345.349 469.125C334.657 464.408 326.008 458.118 319.404 450.256C312.8 442.394 308.083 433.494 305.252 423.557C302.422 413.682 301.007 403.556 301.007 393.178ZM422.712 286.568C414.535 286.568 406.988 291.191 400.069 300.437C393.15 309.745 387.804 321.79 384.03 336.571C401.012 334.369 413.969 329.401 422.9 321.664C431.895 313.991 436.392 306.538 436.392 299.305C436.392 290.814 431.832 286.568 422.712 286.568ZM609.42 418.651C614.137 418.651 619.2 415.191 624.609 408.273C629.956 401.354 635.05 392.549 639.893 381.856C644.736 371.164 649.233 359.434 653.385 346.666C657.473 333.961 660.901 321.947 663.668 310.626L668.385 289.398C664.989 288.14 660.272 287.512 654.234 287.512C643.227 287.512 634.201 291.537 627.157 299.588C620.05 307.576 614.389 317.23 610.175 328.552C605.961 339.873 602.973 351.666 601.212 363.931C599.514 376.196 598.665 386.416 598.665 394.593C598.665 401.197 599.357 406.858 600.74 411.575C602.187 416.292 605.08 418.651 609.42 418.651ZM586.872 474.314C574.921 474.314 564.858 471.861 556.681 466.955C548.505 462.112 541.901 455.823 536.869 448.086C531.837 440.413 528.126 431.765 525.736 422.142C523.409 412.581 522.245 402.927 522.245 393.178C522.245 370.535 525.139 349.527 530.925 330.155C536.775 310.846 545.423 293.958 556.87 279.492C568.38 265.026 582.532 253.705 599.325 245.528C616.181 237.352 635.616 233.263 657.63 233.263C667.945 233.263 677.285 234.112 685.651 235.811C694.016 237.572 702.601 240.496 711.407 244.585L749.145 246.943L729.332 349.779C727.76 357.327 726.565 364.465 725.747 371.195C724.992 377.988 724.615 384.215 724.615 389.876C724.615 403.084 726.187 414.311 729.332 423.557C732.477 432.865 737.194 442.394 743.484 452.143L684.047 475.729C679.329 470.383 675.304 463.842 671.971 456.106C668.7 448.432 667.065 439.878 667.065 430.444C667.065 426.67 667.128 422.425 667.253 417.707C667.442 412.99 667.819 407.487 668.385 401.197L662.347 414.405C652.221 436.105 640.805 451.514 628.1 460.634C615.395 469.754 601.652 474.314 586.872 474.314ZM882.548 410.16V460.634C876.887 462.836 870.912 464.722 864.623 466.295C859.276 467.867 853.144 469.22 846.225 470.352C839.307 471.421 832.231 471.956 824.998 471.956C807.387 471.956 794.273 467.867 785.656 459.691C776.976 451.514 772.636 440.507 772.636 426.67C772.636 424.469 772.794 422.11 773.108 419.594C773.423 417.078 773.894 414.562 774.523 412.047L827.828 137.503L901.417 128.069L850.471 395.065C849.842 399.153 849.37 401.826 849.056 403.084C848.741 404.342 848.584 405.757 848.584 407.329C848.584 409.531 848.993 411.481 849.81 413.179C850.565 414.94 852.515 415.82 855.66 415.82C857.547 415.82 859.905 415.569 862.736 415.066C865.566 414.625 868.396 413.996 871.227 413.179C874.057 412.424 876.51 411.732 878.586 411.103C880.598 410.474 881.919 410.16 882.548 410.16ZM912.738 293.644V238.924H958.967L978.308 184.676L1043.88 170.052L1030.2 238.924H1078.31L1069.82 293.644H1019.82L1000.01 393.649C999.378 395.222 999.001 397.58 998.875 400.725C998.687 403.87 998.592 406.229 998.592 407.801C998.592 410.946 999.536 413.305 1001.42 414.877C1003.31 416.449 1006.93 417.236 1012.27 417.236C1015.1 417.236 1018.66 416.827 1022.93 416.009C1027.15 415.254 1031.3 414.405 1035.39 413.462C1040.1 412.204 1044.82 410.789 1049.54 409.216V462.521C1043.88 464.722 1037.43 466.609 1030.2 468.182C1023.91 469.754 1016.67 471.012 1008.5 471.956C1000.32 472.899 991.516 473.371 982.082 473.371C960.382 473.371 944.973 469.503 935.853 461.766C926.733 454.093 922.173 442.866 922.173 428.085C922.173 425.569 922.33 422.645 922.645 419.311C922.959 416.041 923.431 412.99 924.06 410.16L947.646 293.644H912.738ZM1217 128.069L1203.79 197.412C1200.96 213.451 1195.62 230.024 1187.75 247.132C1179.89 264.303 1171.87 282.637 1163.7 302.135C1170.3 288.927 1176.9 277.92 1183.51 269.114C1190.11 260.309 1196.94 253.233 1203.98 247.887C1211.09 242.541 1218.48 238.767 1226.15 236.565C1233.89 234.364 1242.47 233.263 1251.91 233.263C1272.66 233.263 1287.66 238.295 1296.91 248.358C1306.22 258.422 1310.87 272.888 1310.87 291.757C1310.87 304.965 1309.36 317.387 1306.34 329.023C1303.39 340.659 1300.18 351.666 1296.72 362.044C1293.26 372.422 1290.02 382.328 1287 391.763C1284.05 401.197 1282.57 410.317 1282.57 419.122C1282.57 424.783 1282.95 432.079 1283.7 441.01C1284.52 450.005 1286.19 459.691 1288.7 470.069H1215.11C1213.54 460.634 1212.6 453.307 1212.28 448.086C1211.97 442.929 1211.81 438.306 1211.81 434.218C1211.81 422.896 1213.13 411.795 1215.77 400.914C1218.48 390.096 1221.4 379.403 1224.55 368.837C1227.69 358.333 1230.59 348.049 1233.23 337.986C1235.93 327.923 1237.28 318.016 1237.28 308.267C1237.28 303.865 1236.4 300.311 1234.64 297.606C1232.94 294.965 1230.05 293.644 1225.96 293.644C1219.99 293.644 1213.92 296.789 1207.75 303.078C1201.65 309.368 1195.84 317.45 1190.3 327.325C1184.83 337.263 1180.05 348.112 1175.96 359.874C1171.87 371.699 1168.73 382.957 1166.53 393.649L1151.43 470.069H1078.31L1143.88 137.503L1217 128.069Z" fill="#111111"/>
</g>
</g>
</g>
<g clip-path="url(#clip3_25_120)">
<path d="M1969.96 27.416H1420.52V576.854H1969.96V27.416Z" fill="#195EC6"/>
<path opacity="0.5" d="M1942.54 0H1393.11V549.438H1942.54V0Z" fill="#195EC6"/>
<g clip-path="url(#clip4_25_120)">
<g clip-path="url(#clip5_25_120)">
<path d="M1626.86 78.3311H1769.84V221.317H1906.61V382.953H1769.84V525.938H1626.86V382.953H1483.87V221.317H1626.86V78.3311Z" fill="white"/>
</g>
</g>
</g>
<defs>
<clipPath id="clip0_25_120">
<rect width="1310.92" height="348.132" fill="white" transform="translate(0 128.069)"/>
</clipPath>
<clipPath id="clip1_25_120">
<rect width="1310.92" height="348.132" fill="white" transform="translate(0 128.069)"/>
</clipPath>
<clipPath id="clip2_25_120">
<rect width="1310.92" height="348.132" fill="white" transform="translate(0 128.069)"/>
</clipPath>
<clipPath id="clip3_25_120">
<rect width="604.27" height="604.27" fill="white" transform="translate(1393.11)"/>
</clipPath>
<clipPath id="clip4_25_120">
<rect width="447.383" height="447.607" fill="white" transform="translate(1471.55 78.3311)"/>
</clipPath>
<clipPath id="clip5_25_120">
<rect width="447.383" height="447.607" fill="white" transform="translate(1471.55 78.3311)"/>
</clipPath>
</defs>
</svg>
